<?xml version="1.0" encoding="UTF-8" standalone="no"?>
<!DOCTYPE svg PUBLIC "-//W3C//DTD SVG 1.1//EN" "http://www.w3.org/Graphics/SVG/1.1/DTD/svg11.dtd">
<svg width="100%" height="100%" viewBox="0 0 64 64" version="1.1" xmlns="http://www.w3.org/2000/svg" xmlns:xlink="http://www.w3.org/1999/xlink" xml:space="preserve" xmlns:serif="http://www.serif.com/" style="fill-rule:evenodd;clip-rule:evenodd;stroke-linecap:round;stroke-miterlimit:1.5;">
    <g transform="matrix(1.01188,0,0,0.719844,-1.65728,8.90009)">
        <path d="M61.291,57.34L5.233,57.34L5.233,6.84L61.291,6.84L61.291,57.34ZM8.198,11.008L8.198,53.173L58.326,53.173L58.326,11.008L8.198,11.008Z" style="fill:rgb(105,105,105);"/>
    </g>
    <g transform="matrix(1,0,0,1,-6.75062,1.98063)">
        <path d="M28.322,28.784L40.316,40.668L16.329,40.668L28.322,28.784Z" style="fill:rgb(153,153,153);"/>
    </g>
    <g transform="matrix(1.36947,0,0,1.36947,-0.789645,-13.0449)">
        <path d="M28.322,28.784L40.316,40.668L16.329,40.668L28.322,28.784Z" style="fill:rgb(186,186,186);"/>
    </g>
    <circle cx="16.639" cy="24.253" r="4.932" style="fill:rgb(186,186,186);"/>
    <g transform="matrix(1.25836,0,0,0.455768,0.676649,18.747)">
        <path d="M16.639,39.127L33.566,32" style="fill:none;stroke:rgb(255,0,0);stroke-width:1.59px;stroke-dasharray:1.59,3.17,0,0;"/>
    </g>
    <g id="ハサミのフリーアイコン" transform="matrix(-0.000446046,-0.0186598,0.0186598,-0.000446046,18.5102,36.7876)">
        <g transform="matrix(1,0,0,1,-256,-256)">
            <g>
                <path d="M211.875,291.59L203.369,277.961C203.355,277.985 203.344,278.004 203.328,278.024L203.234,277.875C193.961,292.414 188.027,301.856 188.027,301.856C143.742,372.293 91.019,495.957 113.078,509.742L114.582,510.746C117.924,512.836 121.935,512.25 123.689,509.41L236.238,330.266L231.978,323.496L211.875,291.59Z" style="fill-rule:nonzero;"/>
                <path d="M437.191,10.833C399.841,-12.647 347.369,3.313 320.213,46.427C309.77,63.138 304.588,81.435 304.422,99.068C304.254,111.435 300.494,123.38 293.977,133.744C289.047,141.6 282.696,151.541 275.762,162.654C276.43,163.74 277.182,164.826 277.85,165.912L294.813,192.9C299.743,200.756 304.755,208.611 309.518,216.298C327.817,194.49 353.969,179.95 382.797,177.861C410.369,175.857 438.359,159.396 455.74,131.658C482.812,88.54 474.457,34.313 437.191,10.833ZM423.07,111.102C408.447,134.41 380.791,143.434 361.406,131.32C342.105,119.121 338.262,90.293 352.883,66.98C367.506,43.672 395.246,34.644 414.547,46.761C419.379,49.8 423.243,53.878 426.096,58.644C426.121,58.683 426.143,58.73 426.168,58.773C427.549,61.097 428.684,63.586 429.58,66.199C429.617,66.305 429.648,66.418 429.686,66.523C434.171,79.966 432.218,96.598 423.07,111.102Z" style="fill-rule:nonzero;"/>
                <path d="M213.094,262.082L213.762,263.086L213.262,261.914C213.261,262 213.177,262 213.094,262.082Z" style="fill:rgb(75,75,75);fill-rule:nonzero;"/>
                <path d="M286.205,241.946C274.507,223.399 261.64,202.845 249.609,183.712C237.324,164.243 226.045,146.278 218.023,133.743C211.423,123.38 207.829,111.435 207.663,99.067C207.411,81.434 202.315,63.137 191.788,46.426C173.153,16.848 142.573,0.055 113.161,0.055C110.905,0.055 108.733,0.137 106.475,0.305C95.446,1.305 84.668,4.731 74.891,10.832C37.461,34.313 29.188,88.54 56.344,131.657C73.723,159.395 101.631,175.856 129.289,177.86C163.463,180.368 194.043,200.422 212.342,229.414L223.623,247.379L260.219,305.699L388.395,509.409C389.397,511.077 391.319,511.999 393.325,511.999C393.493,511.999 393.743,511.999 393.909,511.913C395.163,511.831 396.333,511.413 397.419,510.745L399.007,509.741C421.065,495.956 368.259,372.292 323.974,301.855C323.972,301.856 307.177,275.118 286.205,241.946ZM150.594,131.321C145.748,134.329 140.316,136.083 134.803,136.583C133.717,136.669 132.547,136.751 131.461,136.751C115.752,136.751 99.207,127.391 88.93,111.103C74.309,87.79 78.153,58.962 97.453,46.763C102.299,43.755 107.731,42.083 113.328,41.583C114.414,41.497 115.502,41.415 116.672,41.415C132.297,41.415 148.84,50.689 159.117,66.981C173.74,90.294 169.98,119.122 150.594,131.321ZM256.711,265.594C256.125,265.68 255.541,265.68 254.957,265.68C244.845,265.68 236.156,257.907 235.236,247.547C234.316,236.684 242.34,227.075 253.285,226.071C253.869,226.071 254.455,225.989 255.039,225.989C265.234,225.989 273.839,233.759 274.757,244.122C275.761,254.981 267.656,264.676 256.711,265.594Z" style="fill-rule:nonzero;"/>
            </g>
        </g>
    </g>
</svg>
